<svg xmlns="http://www.w3.org/2000/svg" width="120" height="120" xmlns:svg="http://www.w3.org/2000/svg" viewBox="0 0 120 120" data-app="Xyris">
    <defs>
    </defs>
    <rect fill="#e22424" height="120" id="svg_1" rx="60" transform="matrix(1 0 0 1 0 0)" width="120">
    </rect>
    <path clip-rule="evenodd" d="m68.87,39.27l16.42,-17.61c0.93,-1.02 2.22,-0.84 2.91,0.34c1.51,2.58 2.17,5.49 2.03,8.36c0.02,0 0.03,0 0.05,0c0.03,0.01 0.05,0.01 0.08,0.01l3.8,-4.17c0.93,-1.02 2.59,-0.84 3.29,0.34c1.16,1.99 1.82,4.17 1.99,6.39c6.88,3.67 11.56,10.84 11.56,19.1l0,13.99c0,11.99 -9.86,21.7 -22.02,21.7l-1.65,0c-9.12,0 -16.94,-5.45 -20.28,-13.23c-2.62,-0.01 -4.95,-0.02 -7,-0.02c-2.08,0 -4.44,0.01 -7.1,0.02c-3.34,7.78 -11.16,13.23 -20.28,13.23l-1.65,0c-12.16,0 -22.02,-9.71 -22.02,-21.7l0,-13.99c0,-8.26 4.68,-15.43 11.56,-19.1c0.17,-2.22 0.83,-4.4 1.99,-6.39c0.7,-1.18 2.36,-1.36 3.29,-0.34l3.8,4.17c0.03,0 0.05,0 0.08,-0.01c0.02,0 0.03,0 0.05,0c-0.14,-2.87 0.52,-5.78 2.03,-8.36c0.69,-1.18 1.98,-1.36 2.91,-0.34l16.42,17.61c2.59,1.8 5.7,2.71 8.8,2.73c3.15,0.01 6.31,-0.9 8.94,-2.73z" fill="#a01313" fill-rule="evenodd" id="svg_2">
    </path>
    <path clip-rule="evenodd" d="m32.42,39.78c8.64,0 15.65,7 15.65,15.64l0,9.27c0,8.63 -7,15.64 -15.65,15.64c-8.63,0 -15.64,-7 -15.64,-15.64l0,-9.27c0,-8.64 7.01,-15.64 15.64,-15.64z" fill="white" fill-rule="evenodd" id="svg_3">
    </path>
    <path clip-rule="evenodd" d="m87.38,39.78c8.64,0 15.65,7 15.65,15.64l0,9.27c0,8.63 -7,15.64 -15.65,15.64c-8.63,0 -15.64,-7 -15.64,-15.64l0,-9.27c0,-8.64 7,-15.64 15.64,-15.64z" fill="white" fill-rule="evenodd" id="svg_4">
    </path>
    <path clip-rule="evenodd" d="m34.83,48.76c4.1,0 7.43,3.32 7.43,7.43l0,7.93c0,4.09 -3.32,7.42 -7.43,7.42c-4.09,0 -7.42,-3.32 -7.42,-7.42l0,-7.93c0,-4.11 3.33,-7.43 7.42,-7.43z" fill="#4B4B4B" fill-rule="evenodd" id="svg_5">
    </path>
    <path clip-rule="evenodd" d="m60,66.76c4.7,0 8.5,3.81 8.5,8.5l0,2.95c0,4.7 -3.8,8.5 -8.5,8.5c-4.69,0 -8.5,-3.8 -8.5,-8.5l0,-2.95c0,-4.69 3.81,-8.5 8.5,-8.5z" fill="#F48000" fill-rule="evenodd" id="svg_6">
    </path>
    <path d="m48.27,76.07c1.02,-5.42 6.04,-9.33 12.05,-9.33c5.47,0 10.42,4.01 11.42,9.33l0,0.44c0,0.34 -0.12,0.47 -0.43,0.44l-10.98,1.95c-0.3,0 -0.34,0 -0.65,0l-10.98,-1.96c-0.31,0.04 -0.43,-0.1 -0.43,-0.44l0,-0.43z" fill="#FFC200" id="svg_7">
    </path>
    <path clip-rule="evenodd" d="m58.2,68.62c0.57,-0.13 1.16,-0.21 1.76,-0.21c0.62,0 1.26,0.08 1.89,0.24c1.28,0.33 2.17,1.48 2.17,2.8c0,1.06 -0.86,1.91 -1.92,1.91l-4.2,0c-1.06,0 -1.91,-0.86 -1.91,-1.91c-0.01,-1.34 0.91,-2.51 2.21,-2.83z" fill="#FFE747" fill-rule="evenodd" id="svg_8">
    </path>
    <path clip-rule="evenodd" d="m84.97,48.76c4.1,0 7.43,3.32 7.43,7.43l0,7.93c0,4.09 -3.32,7.42 -7.43,7.42c-4.09,0 -7.43,-3.32 -7.43,-7.42l0,-7.93c0.01,-4.11 3.34,-7.43 7.43,-7.43z" fill="#4B4B4B" fill-rule="evenodd" id="svg_9">
    </path>
    <path d="m28.56,57.77c2.65,0 4.79,-2.14 4.79,-4.78c0,-2.63 -2.14,-4.77 -4.79,-4.77c-2.65,0 -4.79,2.14 -4.79,4.77c0,2.64 2.14,4.78 4.79,4.78z" fill="white" id="svg_10">
    </path>
    <path d="m77.97,57.77c2.65,0 4.79,-2.14 4.79,-4.78c0,-2.63 -2.14,-4.77 -4.79,-4.77c-2.65,0 -4.79,2.14 -4.79,4.77c0,2.64 2.14,4.78 4.79,4.78z" fill="white" id="svg_11">
    </path>
    <rect fill="rgb(160, 19, 19)" stroke="#000000" stroke-width="0" x="71.74" y="38.7478" width="31.29" height="2.9471" transform="">
        <animate attributeName="height" keyTimes="0; 0.9553805774278217; 1" values="1.03226; 1.0322; 42.6716" begin="-0.00001" dur="3.8100199999999997" fill="freeze" calcMode="spline" keySplines="0 0 1 1; 0 0 1 1" repeatCount="indefinite">
        </animate>
    </rect>
    <rect fill="rgb(160, 19, 19)" stroke="#000000" stroke-width="0" x="16.779998779296875" y="38.747798919677734" width="31.290000915527344" height="1.0321998596191406">
        <animate attributeName="height" keyTimes="0; 0.9553805774278217; 1" values="1.0322; 1.0322; 42.6989" begin="-0.00001" dur="3.8100199999999997" fill="freeze" calcMode="spline" keySplines="0 0 1 1; 0 0 1 1" repeatCount="indefinite">
        </animate>
    </rect>
</svg>
